<svg width="426" height="114" viewBox="0 0 426 114" fill="none" xmlns="http://www.w3.org/2000/svg">
<mask id="mask0_13_1765" style="mask-type:alpha" maskUnits="userSpaceOnUse" x="-2" y="0" width="428" height="114">
<path d="M0 32C0 15.4315 13.4315 2 30 2H394C410.569 2 424 15.4315 424 32V82C424 98.5685 410.569 112 394 112H30C13.4315 112 0 98.5685 0 82V32Z" fill="url(#paint0_linear_13_1765)"/>
<path d="M30 1C12.8792 1 -1 14.8792 -1 32V82C-1 99.1208 12.8792 113 30 113H394C411.121 113 425 99.1208 425 82V32C425 14.8792 411.121 1 394 1H30Z" stroke="#0A30FF" stroke-opacity="0.83" stroke-width="2"/>
</mask>
<g mask="url(#mask0_13_1765)">
<g opacity="0.1">
<path d="M228.221 13.933L233.919 31.4717L219 20.6322H237.441L222.522 31.4717L228.221 13.933Z" fill="white"/>
<path d="M228.221 47.8661L233.919 65.4048L219 54.5653H237.441L222.522 65.4048L228.221 47.8661Z" fill="white"/>
<path d="M228.221 81.7992L233.919 99.3379L219 88.4984H237.441L222.522 99.3379L228.221 81.7992Z" fill="white"/>
<path d="M248.177 -3.03345L253.875 14.5053L238.956 3.66574H257.397L242.478 14.5053L248.177 -3.03345Z" fill="white"/>
<path d="M248.177 30.8995L253.875 48.4382L238.956 37.5987H257.397L242.478 48.4382L248.177 30.8995Z" fill="white"/>
<path d="M248.177 64.8326L253.875 82.3714L238.956 71.5318H257.397L242.478 82.3714L248.177 64.8326Z" fill="white"/>
<path d="M248.177 98.7657L253.875 116.304L238.956 105.465H257.397L242.478 116.304L248.177 98.7657Z" fill="white"/>
<path d="M268.132 13.933L273.831 31.4717L258.912 20.6322H277.353L262.434 31.4717L268.132 13.933Z" fill="white"/>
<path d="M268.132 47.8661L273.831 65.4048L258.912 54.5653H277.353L262.434 65.4048L268.132 47.8661Z" fill="white"/>
<path d="M268.132 81.7992L273.831 99.3379L258.912 88.4984H277.353L262.434 99.3379L268.132 81.7992Z" fill="white"/>
<path d="M288.088 -3.03345L293.787 14.5053L278.868 3.66574H297.309L282.39 14.5053L288.088 -3.03345Z" fill="white"/>
<path d="M288.088 30.8995L293.787 48.4382L278.868 37.5987H297.309L282.39 48.4382L288.088 30.8995Z" fill="white"/>
<path d="M288.088 64.8326L293.787 82.3714L278.868 71.5318H297.309L282.39 82.3714L288.088 64.8326Z" fill="white"/>
<path d="M288.088 98.7657L293.787 116.304L278.868 105.465H297.309L282.39 116.304L288.088 98.7657Z" fill="white"/>
<path d="M308.044 13.933L313.743 31.4717L298.823 20.6322H317.265L302.345 31.4717L308.044 13.933Z" fill="white"/>
<path d="M308.044 47.8661L313.743 65.4048L298.823 54.5653H317.265L302.345 65.4048L308.044 47.8661Z" fill="white"/>
<path d="M308.044 81.7992L313.743 99.3379L298.823 88.4984H317.265L302.345 99.3379L308.044 81.7992Z" fill="white"/>
<path d="M328 -3.03345L333.699 14.5053L318.779 3.66574H337.221L322.301 14.5053L328 -3.03345Z" fill="white"/>
<path d="M328 30.8995L333.699 48.4382L318.779 37.5987H337.221L322.301 48.4382L328 30.8995Z" fill="white"/>
<path d="M328 64.8326L333.699 82.3714L318.779 71.5318H337.221L322.301 82.3714L328 64.8326Z" fill="white"/>
<path d="M328 98.7657L333.699 116.304L318.779 105.465H337.221L322.301 116.304L328 98.7657Z" fill="white"/>
<path d="M347.956 13.933L353.655 31.4717L338.735 20.6322H357.177L342.257 31.4717L347.956 13.933Z" fill="white"/>
<path d="M347.956 47.8661L353.655 65.4048L338.735 54.5653H357.177L342.257 65.4048L347.956 47.8661Z" fill="white"/>
<path d="M347.956 81.7992L353.655 99.3379L338.735 88.4984H357.177L342.257 99.3379L347.956 81.7992Z" fill="white"/>
<path d="M367.912 -3.03345L373.61 14.5053L358.691 3.66574H377.132L362.213 14.5053L367.912 -3.03345Z" fill="white"/>
<path d="M367.912 30.8995L373.61 48.4382L358.691 37.5987H377.132L362.213 48.4382L367.912 30.8995Z" fill="white"/>
<path d="M367.912 64.8326L373.61 82.3714L358.691 71.5318H377.132L362.213 82.3714L367.912 64.8326Z" fill="white"/>
<path d="M367.912 98.7657L373.61 116.304L358.691 105.465H377.132L362.213 116.304L367.912 98.7657Z" fill="white"/>
<path d="M387.868 13.933L393.566 31.4717L378.647 20.6322H397.088L382.169 31.4717L387.868 13.933Z" fill="white"/>
<path d="M387.868 47.8661L393.566 65.4048L378.647 54.5653H397.088L382.169 65.4048L387.868 47.8661Z" fill="white"/>
<path d="M387.868 81.7992L393.566 99.3379L378.647 88.4984H397.088L382.169 99.3379L387.868 81.7992Z" fill="white"/>
<path d="M407.823 -3.03345L413.522 14.5053L398.603 3.66574H417.044L402.125 14.5053L407.823 -3.03345Z" fill="white"/>
<path d="M407.823 30.8995L413.522 48.4382L398.603 37.5987H417.044L402.125 48.4382L407.823 30.8995Z" fill="white"/>
<path d="M407.823 64.8326L413.522 82.3714L398.603 71.5318H417.044L402.125 82.3714L407.823 64.8326Z" fill="white"/>
<path d="M407.823 98.7657L413.522 116.304L398.603 105.465H417.044L402.125 116.304L407.823 98.7657Z" fill="white"/>
<path d="M427.779 13.933L433.478 31.4717L418.559 20.6322H437L422.081 31.4717L427.779 13.933Z" fill="white"/>
<path d="M427.779 47.8661L433.478 65.4048L418.559 54.5653H437L422.081 65.4048L427.779 47.8661Z" fill="white"/>
<path d="M427.779 81.7992L433.478 99.3379L418.559 88.4984H437L422.081 99.3379L427.779 81.7992Z" fill="white"/>
</g>
<g opacity="0.1">
<path d="M80.0907 -1.98608L83.855 9.59911L74 2.43907H86.1814L76.3264 9.59911L80.0907 -1.98608Z" fill="white"/>
<path d="M80.0907 20.4283L83.855 32.0135L74 24.8535H86.1814L76.3264 32.0135L80.0907 20.4283Z" fill="white"/>
<path d="M80.0907 42.8429L83.855 54.4281L74 47.268H86.1814L76.3264 54.4281L80.0907 42.8429Z" fill="white"/>
<path d="M80.0907 65.2573L83.855 76.8425L74 69.6825H86.1814L76.3264 76.8425L80.0907 65.2573Z" fill="white"/>
<path d="M80.0907 87.6718L83.855 99.2569L74 92.0969H86.1814L76.3264 99.2569L80.0907 87.6718Z" fill="white"/>
<path d="M93.2726 9.22119L97.0368 20.8064L87.1819 13.6463H99.3633L89.5083 20.8064L93.2726 9.22119Z" fill="white"/>
<path d="M93.2726 31.6356L97.0368 43.2208L87.1819 36.0608H99.3633L89.5083 43.2208L93.2726 31.6356Z" fill="white"/>
<path d="M93.2726 54.0502L97.0368 65.6354L87.1819 58.4753H99.3633L89.5083 65.6354L93.2726 54.0502Z" fill="white"/>
<path d="M93.2726 76.4646L97.0368 88.0498L87.1819 80.8898H99.3633L89.5083 88.0498L93.2726 76.4646Z" fill="white"/>
<path d="M106.454 -1.98608L110.219 9.59911L100.364 2.43907H112.545L102.69 9.59911L106.454 -1.98608Z" fill="white"/>
<path d="M106.454 20.4283L110.219 32.0135L100.364 24.8535H112.545L102.69 32.0135L106.454 20.4283Z" fill="white"/>
<path d="M106.454 42.8429L110.219 54.4281L100.364 47.268H112.545L102.69 54.4281L106.454 42.8429Z" fill="white"/>
<path d="M106.454 65.2573L110.219 76.8425L100.364 69.6825H112.545L102.69 76.8425L106.454 65.2573Z" fill="white"/>
<path d="M106.454 87.6718L110.219 99.2569L100.364 92.0969H112.545L102.69 99.2569L106.454 87.6718Z" fill="white"/>
<path d="M119.636 9.22119L123.401 20.8064L113.546 13.6463H125.727L115.872 20.8064L119.636 9.22119Z" fill="white"/>
<path d="M119.636 31.6356L123.401 43.2208L113.546 36.0608H125.727L115.872 43.2208L119.636 31.6356Z" fill="white"/>
<path d="M119.636 54.0502L123.401 65.6354L113.546 58.4753H125.727L115.872 65.6354L119.636 54.0502Z" fill="white"/>
<path d="M119.636 76.4646L123.401 88.0498L113.546 80.8898H125.727L115.872 88.0498L119.636 76.4646Z" fill="white"/>
<path d="M132.818 -1.98608L136.582 9.59911L126.727 2.43907H138.909L129.054 9.59911L132.818 -1.98608Z" fill="white"/>
<path d="M132.818 20.4283L136.582 32.0135L126.727 24.8535H138.909L129.054 32.0135L132.818 20.4283Z" fill="white"/>
<path d="M132.818 42.8429L136.582 54.4281L126.727 47.268H138.909L129.054 54.4281L132.818 42.8429Z" fill="white"/>
<path d="M132.818 65.2573L136.582 76.8425L126.727 69.6825H138.909L129.054 76.8425L132.818 65.2573Z" fill="white"/>
<path d="M132.818 87.6718L136.582 99.2569L126.727 92.0969H138.909L129.054 99.2569L132.818 87.6718Z" fill="white"/>
<path d="M146 9.22119L149.764 20.8064L139.909 13.6463H152.091L142.236 20.8064L146 9.22119Z" fill="white"/>
<path d="M146 31.6356L149.764 43.2208L139.909 36.0608H152.091L142.236 43.2208L146 31.6356Z" fill="white"/>
<path d="M146 54.0502L149.764 65.6354L139.909 58.4753H152.091L142.236 65.6354L146 54.0502Z" fill="white"/>
<path d="M146 76.4646L149.764 88.0498L139.909 80.8898H152.091L142.236 88.0498L146 76.4646Z" fill="white"/>
<path d="M159.182 -1.98608L162.946 9.59911L153.091 2.43907H165.272L155.418 9.59911L159.182 -1.98608Z" fill="white"/>
<path d="M159.182 20.4283L162.946 32.0135L153.091 24.8535H165.272L155.418 32.0135L159.182 20.4283Z" fill="white"/>
<path d="M159.182 42.8429L162.946 54.4281L153.091 47.268H165.272L155.418 54.4281L159.182 42.8429Z" fill="white"/>
<path d="M159.182 65.2573L162.946 76.8425L153.091 69.6825H165.272L155.418 76.8425L159.182 65.2573Z" fill="white"/>
<path d="M159.182 87.6718L162.946 99.2569L153.091 92.0969H165.272L155.418 99.2569L159.182 87.6718Z" fill="white"/>
<path d="M172.364 9.22119L176.128 20.8064L166.273 13.6463H178.454L168.599 20.8064L172.364 9.22119Z" fill="white"/>
<path d="M172.364 31.6356L176.128 43.2208L166.273 36.0608H178.454L168.599 43.2208L172.364 31.6356Z" fill="white"/>
<path d="M172.364 54.0502L176.128 65.6354L166.273 58.4753H178.454L168.599 65.6354L172.364 54.0502Z" fill="white"/>
<path d="M172.364 76.4646L176.128 88.0498L166.273 80.8898H178.454L168.599 88.0498L172.364 76.4646Z" fill="white"/>
<path d="M185.546 -1.98608L189.31 9.59911L179.455 2.43907H191.636L181.781 9.59911L185.546 -1.98608Z" fill="white"/>
<path d="M185.546 20.4283L189.31 32.0135L179.455 24.8535H191.636L181.781 32.0135L185.546 20.4283Z" fill="white"/>
<path d="M185.546 42.8429L189.31 54.4281L179.455 47.268H191.636L181.781 54.4281L185.546 42.8429Z" fill="white"/>
<path d="M185.546 65.2573L189.31 76.8425L179.455 69.6825H191.636L181.781 76.8425L185.546 65.2573Z" fill="white"/>
<path d="M185.546 87.6718L189.31 99.2569L179.455 92.0969H191.636L181.781 99.2569L185.546 87.6718Z" fill="white"/>
<path d="M198.727 9.22119L202.492 20.8064L192.637 13.6463H204.818L194.963 20.8064L198.727 9.22119Z" fill="white"/>
<path d="M198.727 31.6356L202.492 43.2208L192.637 36.0608H204.818L194.963 43.2208L198.727 31.6356Z" fill="white"/>
<path d="M198.727 54.0502L202.492 65.6354L192.637 58.4753H204.818L194.963 65.6354L198.727 54.0502Z" fill="white"/>
<path d="M198.727 76.4646L202.492 88.0498L192.637 80.8898H204.818L194.963 88.0498L198.727 76.4646Z" fill="white"/>
<path d="M211.909 -1.98608L215.673 9.59911L205.818 2.43907H218L208.145 9.59911L211.909 -1.98608Z" fill="white"/>
<path d="M211.909 20.4283L215.673 32.0135L205.818 24.8535H218L208.145 32.0135L211.909 20.4283Z" fill="white"/>
<path d="M211.909 42.8429L215.673 54.4281L205.818 47.268H218L208.145 54.4281L211.909 42.8429Z" fill="white"/>
<path d="M211.909 65.2573L215.673 76.8425L205.818 69.6825H218L208.145 76.8425L211.909 65.2573Z" fill="white"/>
<path d="M211.909 87.6718L215.673 99.2569L205.818 92.0969H218L208.145 99.2569L211.909 87.6718Z" fill="white"/>
</g>
<g opacity="0.1">
<path d="M80.0907 104L83.855 115.585L74 108.425H86.1814L76.3264 115.585L80.0907 104Z" fill="white"/>
<path d="M106.454 104L110.219 115.585L100.364 108.425H112.545L102.69 115.585L106.454 104Z" fill="white"/>
<path d="M132.818 104L136.582 115.585L126.727 108.425H138.909L129.054 115.585L132.818 104Z" fill="white"/>
<path d="M159.182 104L162.946 115.585L153.091 108.425H165.272L155.418 115.585L159.182 104Z" fill="white"/>
<path d="M185.546 104L189.31 115.585L179.455 108.425H191.636L181.781 115.585L185.546 104Z" fill="white"/>
<path d="M211.909 104L215.673 115.585L205.818 108.425H218L208.145 115.585L211.909 104Z" fill="white"/>
</g>
</g>
<defs>
<linearGradient id="paint0_linear_13_1765" x1="424" y1="57" x2="0" y2="57" gradientUnits="userSpaceOnUse">
<stop stop-color="#1A3EFE"/>
<stop offset="0.755477" stop-color="#102599" stop-opacity="0.0111611"/>
<stop offset="1" stop-color="#102598" stop-opacity="0"/>
</linearGradient>
</defs>
</svg>
