<svg width="207" height="114" viewBox="0 0 207 114" fill="none" xmlns="http://www.w3.org/2000/svg">
<g id="Group" opacity="0.1">
<g id="s18">
<g id="s9">
<g id="s5">
<g id="s4">
<path id="s" d="M9.22065 13.933L14.9193 31.4717L0 20.6322H18.4413L3.52198 31.4717L9.22065 13.933Z" fill="white"/>
<path id="s_2" d="M9.22065 47.8661L14.9193 65.4048L0 54.5653H18.4413L3.52198 65.4048L9.22065 47.8661Z" fill="white"/>
<path id="s_3" d="M9.22065 81.7992L14.9193 99.3379L0 88.4984H18.4413L3.52198 99.3379L9.22065 81.7992Z" fill="white"/>
</g>
</g>
<g id="s4_2">
<path id="s_4" d="M29.1766 -3.03345L34.8753 14.5053L19.9559 3.66574H38.3972L23.4779 14.5053L29.1766 -3.03345Z" fill="white"/>
<path id="s_5" d="M29.1766 30.8995L34.8753 48.4382L19.9559 37.5987H38.3972L23.4779 48.4382L29.1766 30.8995Z" fill="white"/>
<path id="s_6" d="M29.1766 64.8326L34.8753 82.3714L19.9559 71.5318H38.3972L23.4779 82.3714L29.1766 64.8326Z" fill="white"/>
<path id="s_7" d="M29.1766 98.7657L34.8753 116.304L19.9559 105.465H38.3972L23.4779 116.304L29.1766 98.7657Z" fill="white"/>
</g>
</g>
<g id="s9_2">
<g id="s5_2">
<g id="s4_3">
<path id="s_8" d="M49.1324 13.933L54.8311 31.4717L39.9117 20.6322H58.353L43.4337 31.4717L49.1324 13.933Z" fill="white"/>
<path id="s_9" d="M49.1324 47.8661L54.8311 65.4048L39.9117 54.5653H58.353L43.4337 65.4048L49.1324 47.8661Z" fill="white"/>
<path id="s_10" d="M49.1324 81.7992L54.8311 99.3379L39.9117 88.4984H58.353L43.4337 99.3379L49.1324 81.7992Z" fill="white"/>
</g>
</g>
<g id="s4_4">
<path id="s_11" d="M69.0883 -3.03345L74.787 14.5053L59.8677 3.66574H78.309L63.3897 14.5053L69.0883 -3.03345Z" fill="white"/>
<path id="s_12" d="M69.0883 30.8995L74.787 48.4382L59.8677 37.5987H78.309L63.3897 48.4382L69.0883 30.8995Z" fill="white"/>
<path id="s_13" d="M69.0883 64.8326L74.787 82.3714L59.8677 71.5318H78.309L63.3897 82.3714L69.0883 64.8326Z" fill="white"/>
<path id="s_14" d="M69.0883 98.7657L74.787 116.304L59.8677 105.465H78.309L63.3897 116.304L69.0883 98.7657Z" fill="white"/>
</g>
</g>
</g>
<g id="s18_2">
<g id="s9_3">
<g id="s5_3">
<g id="s4_5">
<path id="s_15" d="M89.0441 13.933L94.7428 31.4717L79.8235 20.6322H98.2648L83.3455 31.4717L89.0441 13.933Z" fill="white"/>
<path id="s_16" d="M89.0441 47.8661L94.7428 65.4048L79.8235 54.5653H98.2648L83.3455 65.4048L89.0441 47.8661Z" fill="white"/>
<path id="s_17" d="M89.0441 81.7992L94.7428 99.3379L79.8235 88.4984H98.2648L83.3455 99.3379L89.0441 81.7992Z" fill="white"/>
</g>
</g>
<g id="s4_6">
<path id="s_18" d="M109 -3.03345L114.699 14.5053L99.7794 3.66574H118.221L103.301 14.5053L109 -3.03345Z" fill="white"/>
<path id="s_19" d="M109 30.8995L114.699 48.4382L99.7794 37.5987H118.221L103.301 48.4382L109 30.8995Z" fill="white"/>
<path id="s_20" d="M109 64.8326L114.699 82.3714L99.7794 71.5318H118.221L103.301 82.3714L109 64.8326Z" fill="white"/>
<path id="s_21" d="M109 98.7657L114.699 116.304L99.7794 105.465H118.221L103.301 116.304L109 98.7657Z" fill="white"/>
</g>
</g>
<g id="s9_4">
<g id="s5_4">
<g id="s4_7">
<path id="s_22" d="M128.956 13.933L134.655 31.4717L119.735 20.6322H138.177L123.257 31.4717L128.956 13.933Z" fill="white"/>
<path id="s_23" d="M128.956 47.8661L134.655 65.4048L119.735 54.5653H138.177L123.257 65.4048L128.956 47.8661Z" fill="white"/>
<path id="s_24" d="M128.956 81.7992L134.655 99.3379L119.735 88.4984H138.177L123.257 99.3379L128.956 81.7992Z" fill="white"/>
</g>
</g>
<g id="s4_8">
<path id="s_25" d="M148.912 -3.03345L154.61 14.5053L139.691 3.66574H158.132L143.213 14.5053L148.912 -3.03345Z" fill="white"/>
<path id="s_26" d="M148.912 30.8995L154.61 48.4382L139.691 37.5987H158.132L143.213 48.4382L148.912 30.8995Z" fill="white"/>
<path id="s_27" d="M148.912 64.8326L154.61 82.3714L139.691 71.5318H158.132L143.213 82.3714L148.912 64.8326Z" fill="white"/>
<path id="s_28" d="M148.912 98.7657L154.61 116.304L139.691 105.465H158.132L143.213 116.304L148.912 98.7657Z" fill="white"/>
</g>
</g>
</g>
<g id="s9_5">
<g id="s5_5">
<g id="s4_9">
<path id="s_29" d="M168.868 13.933L174.566 31.4717L159.647 20.6322H178.088L163.169 31.4717L168.868 13.933Z" fill="white"/>
<path id="s_30" d="M168.868 47.8661L174.566 65.4048L159.647 54.5653H178.088L163.169 65.4048L168.868 47.8661Z" fill="white"/>
<path id="s_31" d="M168.868 81.7992L174.566 99.3379L159.647 88.4984H178.088L163.169 99.3379L168.868 81.7992Z" fill="white"/>
</g>
</g>
<g id="s4_10">
<path id="s_32" d="M188.823 -3.03345L194.522 14.5053L179.603 3.66574H198.044L183.125 14.5053L188.823 -3.03345Z" fill="white"/>
<path id="s_33" d="M188.823 30.8995L194.522 48.4382L179.603 37.5987H198.044L183.125 48.4382L188.823 30.8995Z" fill="white"/>
<path id="s_34" d="M188.823 64.8326L194.522 82.3714L179.603 71.5318H198.044L183.125 82.3714L188.823 64.8326Z" fill="white"/>
<path id="s_35" d="M188.823 98.7657L194.522 116.304L179.603 105.465H198.044L183.125 116.304L188.823 98.7657Z" fill="white"/>
</g>
</g>
<g id="s5_6">
<g id="s4_11">
<path id="s_36" d="M208.779 13.933L214.478 31.4717L199.559 20.6322H218L203.081 31.4717L208.779 13.933Z" fill="white"/>
<path id="s_37" d="M208.779 47.8661L214.478 65.4048L199.559 54.5653H218L203.081 65.4048L208.779 47.8661Z" fill="white"/>
<path id="s_38" d="M208.779 81.7992L214.478 99.3379L199.559 88.4984H218L203.081 99.3379L208.779 81.7992Z" fill="white"/>
</g>
</g>
</g>
</svg>
