<svg width="32" height="32" viewBox="0 0 32 32" fill="none" xmlns="http://www.w3.org/2000/svg">
<path opacity="0.2" d="M9.83796 20.8764C8.64889 19.9477 7.6858 18.7616 7.02108 17.4071C6.35636 16.0527 6.00731 14.5652 6.00015 13.0564C5.9702 7.63614 10.34 3.13038 15.7589 3.00284C17.8587 2.95228 19.9212 3.56417 21.6537 4.75173C23.3862 5.93928 24.7008 7.6422 25.411 9.61893C26.1212 11.5957 26.191 13.7458 25.6104 15.7644C25.0299 17.7831 23.8284 19.5676 22.1766 20.865C21.8127 21.1469 21.5178 21.5078 21.3139 21.9205C21.1101 22.3331 21.0028 22.7867 21 23.247L21 24C21 24.2652 20.8947 24.5196 20.7071 24.7071C20.5196 24.8946 20.2652 25 20 25H12C11.7348 25 11.4804 24.8946 11.2929 24.7071C11.1053 24.5196 11 24.2652 11 24L11 23.2461C10.9988 22.7888 10.8936 22.3378 10.6923 21.9273C10.491 21.5167 10.1988 21.1573 9.83796 20.8764V20.8764Z" fill="#F9E006"/>
<path d="M11 29H21" stroke="#F9E006" stroke-width="2" stroke-linecap="round" stroke-linejoin="round"/>
<path d="M16 25V18" stroke="#F9E006" stroke-width="2" stroke-linecap="round" stroke-linejoin="round"/>
<path d="M12 14L16 18L20 14" stroke="#F9E006" stroke-width="2" stroke-linecap="round" stroke-linejoin="round"/>
<path d="M9.83796 20.8764C8.64889 19.9477 7.6858 18.7616 7.02108 17.4071C6.35636 16.0527 6.00731 14.5652 6.00015 13.0564C5.9702 7.63614 10.34 3.13038 15.7589 3.00284C17.8587 2.95228 19.9212 3.56417 21.6537 4.75173C23.3862 5.93928 24.7008 7.6422 25.411 9.61893C26.1212 11.5957 26.191 13.7458 25.6104 15.7644C25.0299 17.7831 23.8284 19.5676 22.1766 20.865C21.8127 21.1469 21.5178 21.5078 21.3139 21.9205C21.1101 22.3331 21.0028 22.7867 21 23.247L21 24C21 24.2652 20.8947 24.5196 20.7071 24.7071C20.5196 24.8946 20.2652 25 20 25H12C11.7348 25 11.4804 24.8946 11.2929 24.7071C11.1053 24.5196 11 24.2652 11 24L11 23.2461C10.9988 22.7888 10.8936 22.3378 10.6923 21.9273C10.491 21.5167 10.1988 21.1573 9.83796 20.8764V20.8764Z" stroke="#F9E006" stroke-width="2" stroke-linecap="round" stroke-linejoin="round"/>
</svg>
