<svg width="219" height="76" viewBox="0 0 219 76" fill="none" xmlns="http://www.w3.org/2000/svg">
<g filter="url(#filter0_bd_13_213)">
<path d="M13 25C13 18.3726 18.3726 13 25 13H188C194.627 13 200 18.3726 200 25V45C200 51.6274 194.627 57 188 57H25C18.3726 57 13 51.6274 13 45V25Z" fill="#F1F1F1" fill-opacity="0.06" shape-rendering="crispEdges"/>
<path d="M13.5 25C13.5 18.6487 18.6487 13.5 25 13.5H188C194.351 13.5 199.5 18.6487 199.5 25V45C199.5 51.3513 194.351 56.5 188 56.5H25C18.6487 56.5 13.5 51.3513 13.5 45V25Z" stroke="#F5C451" stroke-opacity="0.33" shape-rendering="crispEdges"/>
<path d="M54 36H59M51 36H51.009M56 40H51M59 40H58.991" stroke="#CDD4D3" stroke-width="1.5" stroke-linecap="round" stroke-linejoin="round"/>
<path d="M61 25V27M49 25V27" stroke="#CDD4D3" stroke-width="1.5" stroke-linecap="round" stroke-linejoin="round"/>
<path opacity="0.3" d="M45.5 35.2432C45.5 30.8859 45.5 28.7073 46.7521 27.3536C48.0042 26 50.0195 26 54.05 26H55.95C59.9805 26 61.9958 26 63.2479 27.3536C64.5 28.7073 64.5 30.8859 64.5 35.2432V35.7568C64.5 40.1141 64.5 42.2927 63.2479 43.6464C61.9958 45 59.9805 45 55.95 45H54.05C50.0195 45 48.0042 45 46.7521 43.6464C45.5 42.2927 45.5 40.1141 45.5 35.7568V35.2432Z" fill="#CDD4D3"/>
<path d="M47 31H63" stroke="#CDD4D3" stroke-width="1.5" stroke-linecap="round" stroke-linejoin="round"/>
<path d="M80.076 30.3182H81.6072V37.5369C81.6072 38.1899 81.478 38.7483 81.2195 39.2124C80.9643 39.6764 80.6046 40.031 80.1406 40.2763C79.6766 40.5182 79.133 40.6392 78.5099 40.6392C77.9366 40.6392 77.4212 40.5348 76.9638 40.326C76.5097 40.1172 76.1501 39.8139 75.8849 39.4162C75.6231 39.0152 75.4922 38.5279 75.4922 37.9545H77.0185C77.0185 38.2363 77.0831 38.4799 77.2124 38.6854C77.3449 38.8909 77.5256 39.0516 77.7543 39.1676C77.9863 39.2803 78.2514 39.3366 78.5497 39.3366C78.8745 39.3366 79.1496 39.2687 79.375 39.1328C79.6037 38.9936 79.7777 38.7898 79.897 38.5213C80.0163 38.2528 80.076 37.9247 80.076 37.5369V30.3182ZM88.5613 37.3331V32.8636H90.0527V40.5H88.5911V39.1776H88.5115C88.3359 39.5852 88.0542 39.925 87.6664 40.1967C87.2819 40.4652 86.803 40.5994 86.2296 40.5994C85.7391 40.5994 85.3049 40.4917 84.927 40.2763C84.5525 40.0575 84.2575 39.7344 84.0421 39.3068C83.83 38.8793 83.7239 38.3506 83.7239 37.7209V32.8636H85.2104V37.5419C85.2104 38.0623 85.3546 38.4766 85.6429 38.7848C85.9313 39.093 86.3058 39.2472 86.7665 39.2472C87.0449 39.2472 87.3217 39.1776 87.5968 39.0384C87.8752 38.8991 88.1055 38.6887 88.2878 38.407C88.4734 38.1252 88.5646 37.7673 88.5613 37.3331ZM93.5366 35.9659V40.5H92.0501V32.8636H93.4769V34.1065H93.5714C93.747 33.7022 94.0221 33.3774 94.3967 33.1321C94.7745 32.8868 95.2501 32.7642 95.8235 32.7642C96.3439 32.7642 96.7996 32.8736 97.1907 33.0923C97.5818 33.3078 97.8851 33.6293 98.1005 34.0568C98.3159 34.4844 98.4237 35.013 98.4237 35.6428V40.5H96.9371V35.8217C96.9371 35.2682 96.793 34.8357 96.5046 34.5241C96.2163 34.2093 95.8202 34.0518 95.3164 34.0518C94.9717 34.0518 94.6651 34.1264 94.3967 34.2756C94.1315 34.4247 93.921 34.6435 93.7653 34.9318C93.6128 35.2169 93.5366 35.5616 93.5366 35.9659ZM103.708 40.6541C102.956 40.6541 102.308 40.4934 101.765 40.1719C101.224 39.8471 100.807 39.3913 100.512 38.8047C100.22 38.2147 100.074 37.5237 100.074 36.7315C100.074 35.9493 100.22 35.2599 100.512 34.6634C100.807 34.0668 101.218 33.6011 101.745 33.2663C102.275 32.9316 102.895 32.7642 103.604 32.7642C104.035 32.7642 104.453 32.8355 104.857 32.978C105.261 33.1205 105.624 33.3442 105.946 33.6491C106.267 33.9541 106.521 34.3501 106.706 34.8374C106.892 35.3213 106.985 35.9096 106.985 36.6023V37.1293H100.914V36.0156H105.528C105.528 35.6245 105.449 35.2782 105.289 34.9766C105.13 34.6716 104.907 34.4313 104.618 34.2557C104.333 34.08 103.998 33.9922 103.614 33.9922C103.196 33.9922 102.832 34.0949 102.52 34.3004C102.212 34.5026 101.973 34.7678 101.804 35.0959C101.639 35.4207 101.556 35.7737 101.556 36.1548V37.0249C101.556 37.5353 101.645 37.9695 101.824 38.3274C102.007 38.6854 102.26 38.9588 102.585 39.1477C102.91 39.3333 103.289 39.4261 103.723 39.4261C104.005 39.4261 104.262 39.3864 104.494 39.3068C104.726 39.224 104.926 39.1013 105.096 38.9389C105.265 38.7765 105.394 38.576 105.483 38.3374L106.89 38.5909C106.778 39.0052 106.575 39.3681 106.284 39.6797C105.995 39.9879 105.632 40.2282 105.195 40.4006C104.761 40.5696 104.265 40.6541 103.708 40.6541ZM116.182 30.3182V40.5H114.641V31.8594H114.581L112.145 33.4503V31.9787L114.686 30.3182H116.182ZM118.936 40.5V39.3864L122.382 35.8168C122.75 35.429 123.053 35.0893 123.292 34.7976C123.533 34.5026 123.714 34.2225 123.833 33.9574C123.953 33.6922 124.012 33.4105 124.012 33.1122C124.012 32.7741 123.933 32.4825 123.774 32.2372C123.615 31.9886 123.398 31.7981 123.123 31.6655C122.847 31.5296 122.538 31.4616 122.193 31.4616C121.828 31.4616 121.51 31.5362 121.238 31.6854C120.967 31.8345 120.758 32.045 120.612 32.3168C120.466 32.5885 120.393 32.9067 120.393 33.2713H118.926C118.926 32.6515 119.069 32.1096 119.354 31.6456C119.639 31.1816 120.03 30.822 120.527 30.5668C121.025 30.3082 121.59 30.179 122.223 30.179C122.862 30.179 123.426 30.3066 123.913 30.5618C124.404 30.8137 124.786 31.1584 125.061 31.5959C125.337 32.0301 125.474 32.5206 125.474 33.0675C125.474 33.4453 125.403 33.8149 125.26 34.1761C125.121 34.5374 124.877 34.9401 124.529 35.3842C124.181 35.825 123.698 36.3603 123.078 36.9901L121.054 39.108V39.1825H125.638V40.5H118.936ZM129.476 39.108L129.402 39.6499C129.352 40.0476 129.267 40.4619 129.148 40.8928C129.032 41.3269 128.911 41.7296 128.785 42.1009C128.663 42.4721 128.561 42.767 128.482 42.9858H127.428C127.471 42.7803 127.531 42.5019 127.607 42.1506C127.683 41.8026 127.758 41.4131 127.831 40.9822C127.904 40.5514 127.958 40.1122 127.995 39.6648L128.044 39.108H129.476ZM135.097 40.5V39.3864L138.542 35.8168C138.91 35.429 139.213 35.0893 139.452 34.7976C139.694 34.5026 139.874 34.2225 139.994 33.9574C140.113 33.6922 140.173 33.4105 140.173 33.1122C140.173 32.7741 140.093 32.4825 139.934 32.2372C139.775 31.9886 139.558 31.7981 139.283 31.6655C139.008 31.5296 138.698 31.4616 138.353 31.4616C137.988 31.4616 137.67 31.5362 137.398 31.6854C137.127 31.8345 136.918 32.045 136.772 32.3168C136.626 32.5885 136.553 32.9067 136.553 33.2713H135.087C135.087 32.6515 135.229 32.1096 135.514 31.6456C135.799 31.1816 136.19 30.822 136.688 30.5668C137.185 30.3082 137.75 30.179 138.383 30.179C139.022 30.179 139.586 30.3066 140.073 30.5618C140.564 30.8137 140.946 31.1584 141.222 31.5959C141.497 32.0301 141.634 32.5206 141.634 33.0675C141.634 33.4453 141.563 33.8149 141.42 34.1761C141.281 34.5374 141.038 34.9401 140.69 35.3842C140.342 35.825 139.858 36.3603 139.238 36.9901L137.214 39.108V39.1825H141.798V40.5H135.097ZM147.227 40.669C146.442 40.6657 145.771 40.4586 145.214 40.0476C144.657 39.6366 144.231 39.0384 143.936 38.2528C143.641 37.4673 143.494 36.5211 143.494 35.4141C143.494 34.3104 143.641 33.3674 143.936 32.5852C144.234 31.803 144.662 31.2064 145.219 30.7955C145.779 30.3845 146.448 30.179 147.227 30.179C148.006 30.179 148.674 30.3861 149.231 30.8004C149.788 31.2114 150.214 31.808 150.509 32.5902C150.807 33.3691 150.956 34.3104 150.956 35.4141C150.956 36.5244 150.808 37.4723 150.513 38.2578C150.219 39.04 149.793 39.6383 149.236 40.0526C148.679 40.4635 148.009 40.669 147.227 40.669ZM147.227 39.3416C147.917 39.3416 148.455 39.0052 148.843 38.3324C149.234 37.6596 149.43 36.6868 149.43 35.4141C149.43 34.5689 149.34 33.8546 149.161 33.2713C148.986 32.6847 148.732 32.2405 148.401 31.9389C148.072 31.634 147.681 31.4815 147.227 31.4815C146.541 31.4815 146.003 31.8196 145.612 32.4957C145.22 33.1719 145.023 34.1446 145.02 35.4141C145.02 36.2625 145.108 36.9801 145.283 37.5668C145.462 38.1501 145.716 38.5926 146.044 38.8942C146.372 39.1925 146.767 39.3416 147.227 39.3416ZM152.72 40.5V39.3864L156.165 35.8168C156.533 35.429 156.836 35.0893 157.075 34.7976C157.317 34.5026 157.497 34.2225 157.617 33.9574C157.736 33.6922 157.796 33.4105 157.796 33.1122C157.796 32.7741 157.716 32.4825 157.557 32.2372C157.398 31.9886 157.181 31.7981 156.906 31.6655C156.631 31.5296 156.321 31.4616 155.976 31.4616C155.611 31.4616 155.293 31.5362 155.021 31.6854C154.75 31.8345 154.541 32.045 154.395 32.3168C154.249 32.5885 154.176 32.9067 154.176 33.2713H152.71C152.71 32.6515 152.852 32.1096 153.137 31.6456C153.422 31.1816 153.813 30.822 154.311 30.5668C154.808 30.3082 155.373 30.179 156.006 30.179C156.646 30.179 157.209 30.3066 157.696 30.5618C158.187 30.8137 158.57 31.1584 158.845 31.5959C159.12 32.0301 159.257 32.5206 159.257 33.0675C159.257 33.4453 159.186 33.8149 159.044 34.1761C158.904 34.5374 158.661 34.9401 158.313 35.3842C157.965 35.825 157.481 36.3603 156.861 36.9901L154.838 39.108V39.1825H159.421V40.5H152.72ZM160.873 38.5114V37.2685L165.273 30.3182H166.252V32.1477H165.631L162.484 37.1293V37.2088H168.514V38.5114H160.873ZM165.7 40.5V38.1335L165.71 37.5668V30.3182H167.167V40.5H165.7Z" fill="#EEEEEE"/>
</g>
<defs>
<filter id="filter0_bd_13_213" x="-7" y="-7" width="227" height="84" filterUnits="userSpaceOnUse" color-interpolation-filters="sRGB">
<feFlood flood-opacity="0" result="BackgroundImageFix"/>
<feGaussianBlur in="BackgroundImageFix" stdDeviation="10"/>
<feComposite in2="SourceAlpha" operator="in" result="effect1_backgroundBlur_13_213"/>
<feColorMatrix in="SourceAlpha" type="matrix" values="0 0 0 0 0 0 0 0 0 0 0 0 0 0 0 0 0 0 127 0" result="hardAlpha"/>
<feOffset dx="3" dy="3"/>
<feGaussianBlur stdDeviation="8"/>
<feComposite in2="hardAlpha" operator="out"/>
<feColorMatrix type="matrix" values="0 0 0 0 0 0 0 0 0 0 0 0 0 0 0 0 0 0 0.06 0"/>
<feBlend mode="normal" in2="effect1_backgroundBlur_13_213" result="effect2_dropShadow_13_213"/>
<feBlend mode="normal" in="SourceGraphic" in2="effect2_dropShadow_13_213" result="shape"/>
</filter>
</defs>
</svg>
